<svg width="328" height="52" viewBox="0 0 328 52" fill="none" xmlns="http://www.w3.org/2000/svg">
<path d="M1.704 2.632L9.288 2.824C9.992 2.824 10.6 2.824 11.112 2.824L21.096 2.632C21.544 2.632 21.768 3.112 21.768 4.072C21.768 4.968 21.512 5.416 21 5.416H16.584C15.752 5.416 15.336 5.928 15.336 6.952V38.728C15.336 43.592 15.976 46.024 17.256 46.024H22.056C22.568 46.024 22.824 46.536 22.824 47.56C22.824 48.52 22.632 49 22.248 49L11.112 48.904L1.512 49.192C1.064 49.192 0.84 48.712 0.84 47.752C0.84 46.792 1.032 46.312 1.416 46.312H5.736C6.44 46.312 6.856 46.184 6.984 45.928C7.112 45.608 7.176 44.808 7.176 43.528V13.288C7.176 8.168 6.536 5.608 5.256 5.608H1.8C1.032 5.608 0.648 5.128 0.648 4.168C0.648 3.144 1 2.632 1.704 2.632ZM66.159 49L55.887 49.192C55.439 49.192 55.215 48.712 55.215 47.752C55.215 46.792 55.375 46.312 55.695 46.312H60.399C61.167 46.312 61.551 45.768 61.551 44.68V13.192C61.551 8.136 60.847 5.608 59.439 5.608H56.079C55.375 5.608 55.023 5.128 55.023 4.168C55.023 3.144 55.311 2.632 55.887 2.632C59.215 2.76 62.575 2.824 65.967 2.824H75.279C83.599 2.824 90.319 5.096 95.439 9.64C100.623 14.12 103.215 19.72 103.215 26.44C103.215 33.16 100.687 38.6 95.631 42.76C90.639 46.92 84.303 49 76.623 49H66.159ZM72.015 5.704C70.479 5.704 69.711 6.632 69.711 8.488V38.44C69.711 43.432 70.383 45.928 71.727 45.928H75.183C81.071 45.928 85.583 44.264 88.719 40.936C91.919 37.608 93.519 32.968 93.519 27.016C93.519 21 91.791 16.008 88.335 12.04C84.879 8.072 79.535 5.96 72.303 5.704C72.175 5.704 72.079 5.704 72.015 5.704ZM111.767 2.632L121.559 2.824H141.431V1.288C141.431 0.903998 141.847 0.711998 142.679 0.711998C143.575 0.711998 144.023 0.903998 144.023 1.288C144.023 6.344 144.247 9.96 144.695 12.136C144.823 12.52 144.471 12.712 143.639 12.712C142.551 12.712 142.007 12.52 142.007 12.136C141.111 9.192 140.247 7.528 139.415 7.144C136.727 6.184 132.823 5.704 127.703 5.704C126.807 5.768 126.199 6.024 125.879 6.472C125.559 6.92 125.399 7.72 125.399 8.872V24.616C133.143 24.36 137.399 24.008 138.167 23.56L138.839 19.528C138.967 19.208 139.415 19.048 140.183 19.048C141.015 19.048 141.431 19.272 141.431 19.72C141.175 21.576 141.047 23.656 141.047 25.96C141.047 28.2 141.175 30.248 141.431 32.104C141.431 32.488 140.983 32.68 140.087 32.68C139.255 32.68 138.839 32.552 138.839 32.296L138.071 28.168C137.303 27.72 133.079 27.368 125.399 27.112V38.728C125.399 43.528 126.039 45.928 127.319 45.928H130.391C137.431 45.8 142.295 44.808 144.983 42.952L145.463 39.208C145.591 38.824 145.911 38.632 146.423 38.632C146.999 38.632 147.383 38.632 147.575 38.632C147.959 38.76 148.151 38.952 148.151 39.208C147.767 41.896 147.575 45.672 147.575 50.536C147.575 50.856 147.127 51.016 146.231 51.016C145.399 51.016 144.983 50.856 144.983 50.536V49H127.895L111.575 49.192C111.127 49.192 110.903 48.712 110.903 47.752C110.903 46.792 111.095 46.312 111.479 46.312H115.799C116.503 46.312 116.919 46.184 117.047 45.928C117.175 45.608 117.239 44.808 117.239 43.528V13.288C117.239 8.168 116.599 5.608 115.319 5.608H111.863C111.095 5.608 110.711 5.128 110.711 4.168C110.711 3.144 111.063 2.632 111.767 2.632ZM182.787 50.248C174.979 50.248 168.515 48.168 163.395 44.008C158.275 39.848 155.715 34.152 155.715 26.92C155.715 19.624 158.467 13.576 163.971 8.776C169.475 3.976 176.035 1.576 183.651 1.576C187.363 1.576 191.011 2.504 194.595 4.36V2.728C194.595 2.28 194.979 2.056 195.747 2.056C196.579 2.056 196.995 2.28 196.995 2.728C196.995 6.76 197.315 10.952 197.955 15.304C198.019 15.496 197.891 15.688 197.571 15.88C197.315 16.008 196.899 16.072 196.323 16.072C195.747 16.072 195.395 15.816 195.267 15.304L194.499 10.216C190.915 6.824 186.787 5.128 182.115 5.128C177.507 5.128 173.539 7.112 170.211 11.08C166.947 15.048 165.315 20.008 165.315 25.96C165.315 31.912 167.043 36.872 170.499 40.84C173.955 44.744 178.019 46.696 182.691 46.696C187.363 46.696 191.779 45.32 195.939 42.568L196.419 37.096C196.419 36.584 196.867 36.328 197.763 36.328C198.659 36.328 199.107 36.552 199.107 37L198.531 49.192C198.531 49.576 198.083 49.768 197.187 49.768C196.355 49.768 195.939 49.576 195.939 49.192V47.56C191.523 49.352 187.139 50.248 182.787 50.248ZM207.017 2.632L214.601 2.824C215.305 2.824 215.913 2.824 216.424 2.824L226.409 2.632C226.857 2.632 227.081 3.112 227.081 4.072C227.081 4.968 226.825 5.416 226.312 5.416H221.897C221.065 5.416 220.649 5.928 220.649 6.952V38.728C220.649 43.592 221.289 46.024 222.569 46.024H227.369C227.881 46.024 228.137 46.536 228.137 47.56C228.137 48.52 227.945 49 227.561 49L216.424 48.904L206.825 49.192C206.377 49.192 206.153 48.712 206.153 47.752C206.153 46.792 206.345 46.312 206.729 46.312H211.049C211.753 46.312 212.169 46.184 212.297 45.928C212.425 45.608 212.489 44.808 212.489 43.528V13.288C212.489 8.168 211.849 5.608 210.569 5.608H207.113C206.345 5.608 205.961 5.128 205.961 4.168C205.961 3.144 206.313 2.632 207.017 2.632ZM245.128 49L234.856 49.192C234.408 49.192 234.184 48.712 234.184 47.752C234.184 46.792 234.344 46.312 234.664 46.312H239.368C240.136 46.312 240.52 45.768 240.52 44.68V13.192C240.52 8.136 239.816 5.608 238.408 5.608H235.048C234.344 5.608 233.992 5.128 233.992 4.168C233.992 3.144 234.28 2.632 234.856 2.632C238.184 2.76 241.544 2.824 244.936 2.824H254.248C262.568 2.824 269.288 5.096 274.408 9.64C279.592 14.12 282.184 19.72 282.184 26.44C282.184 33.16 279.656 38.6 274.6 42.76C269.608 46.92 263.272 49 255.592 49H245.128ZM250.984 5.704C249.448 5.704 248.68 6.632 248.68 8.488V38.44C248.68 43.432 249.352 45.928 250.696 45.928H254.152C260.04 45.928 264.552 44.264 267.688 40.936C270.888 37.608 272.488 32.968 272.488 27.016C272.488 21 270.76 16.008 267.304 12.04C263.848 8.072 258.504 5.96 251.272 5.704C251.144 5.704 251.048 5.704 250.984 5.704ZM290.735 2.632L300.527 2.824H320.399V1.288C320.399 0.903998 320.815 0.711998 321.647 0.711998C322.543 0.711998 322.991 0.903998 322.991 1.288C322.991 6.344 323.215 9.96 323.663 12.136C323.791 12.52 323.439 12.712 322.607 12.712C321.519 12.712 320.975 12.52 320.975 12.136C320.079 9.192 319.215 7.528 318.383 7.144C315.695 6.184 311.791 5.704 306.671 5.704C305.775 5.768 305.167 6.024 304.847 6.472C304.527 6.92 304.367 7.72 304.367 8.872V24.616C312.111 24.36 316.367 24.008 317.135 23.56L317.807 19.528C317.935 19.208 318.383 19.048 319.151 19.048C319.983 19.048 320.399 19.272 320.399 19.72C320.143 21.576 320.015 23.656 320.015 25.96C320.015 28.2 320.143 30.248 320.399 32.104C320.399 32.488 319.951 32.68 319.055 32.68C318.223 32.68 317.807 32.552 317.807 32.296L317.039 28.168C316.271 27.72 312.047 27.368 304.367 27.112V38.728C304.367 43.528 305.007 45.928 306.287 45.928H309.359C316.399 45.8 321.263 44.808 323.951 42.952L324.431 39.208C324.559 38.824 324.879 38.632 325.391 38.632C325.967 38.632 326.351 38.632 326.543 38.632C326.927 38.76 327.119 38.952 327.119 39.208C326.735 41.896 326.543 45.672 326.543 50.536C326.543 50.856 326.095 51.016 325.199 51.016C324.367 51.016 323.951 50.856 323.951 50.536V49H306.863L290.543 49.192C290.095 49.192 289.871 48.712 289.871 47.752C289.871 46.792 290.063 46.312 290.447 46.312H294.767C295.471 46.312 295.887 46.184 296.015 45.928C296.143 45.608 296.207 44.808 296.207 43.528V13.288C296.207 8.168 295.567 5.608 294.287 5.608H290.831C290.063 5.608 289.679 5.128 289.679 4.168C289.679 3.144 290.031 2.632 290.735 2.632Z" fill="black"/>
</svg>
