<svg width="335" height="52" viewBox="0 0 335 52" fill="none" xmlns="http://www.w3.org/2000/svg">
<path d="M46.344 2.92L58.92 2.632C59.432 2.632 59.688 3.112 59.688 4.072C59.688 4.968 59.432 5.416 58.92 5.416H56.52C55.112 5.416 54.408 6.6 54.408 8.968C54.408 9.992 54.856 15.048 55.752 24.136C56.712 33.224 57.32 39.144 57.576 41.896C57.896 44.648 58.472 46.024 59.304 46.024H63.528C64.104 46.024 64.392 46.536 64.392 47.56C64.392 48.52 64.136 49 63.624 49L54.216 48.904L44.52 49.192C44.072 49.192 43.848 48.712 43.848 47.752C43.848 46.792 44.04 46.312 44.424 46.312H47.4C49.128 46.312 49.928 45.576 49.8 44.104C48.52 26.184 47.816 16.04 47.688 13.672H47.304C41.352 26.216 36.424 37.576 32.52 47.752C32.264 48.328 31.624 48.616 30.6 48.616C29.64 48.616 29.032 48.296 28.776 47.656C27.048 43.176 22.376 31.592 14.76 12.904H14.472C13.512 26.152 13.032 33.992 13.032 36.424C13.032 38.856 13.032 40.168 13.032 40.36C13.032 44.136 13.608 46.024 14.76 46.024H17.736C18.376 46.024 18.696 46.536 18.696 47.56C18.696 48.52 18.376 49 17.736 49L10.056 48.904L0.84 49.192C0.456 49.192 0.264 48.712 0.264 47.752C0.264 46.792 0.488 46.312 0.936 46.312H3.24C4.776 46.312 5.704 46.152 6.024 45.832C6.408 45.448 6.664 44.968 6.792 44.392C7.24 41.768 7.912 36.072 8.808 27.304C9.768 18.536 10.248 13.16 10.248 11.176C10.312 9.128 10.184 7.688 9.864 6.856C9.608 6.024 9.096 5.608 8.328 5.608H5.64C5.256 5.608 5.064 5.128 5.064 4.168C5.064 3.144 5.256 2.632 5.64 2.632L14.856 2.92H19.368C19.944 4.584 24.168 16.168 32.04 37.672H32.424C36.904 28.072 41.544 16.488 46.344 2.92ZM93.1343 48.904L83.5343 49.192C83.0863 49.192 82.8623 48.712 82.8623 47.752C82.8623 46.792 83.0543 46.312 83.4383 46.312H87.7583C88.4623 46.312 88.8783 46.184 89.0063 45.928C89.1343 45.608 89.1983 44.808 89.1983 43.528V28.264H89.1023C89.1663 26.344 84.6543 20.168 75.5663 9.736C73.0703 6.792 71.1503 5.32 69.8063 5.32H67.5983C67.0862 5.32 66.8302 4.904 66.8302 4.072C66.8302 3.176 67.0222 2.728 67.4062 2.728L76.5263 2.824L86.5103 2.728C86.8943 2.728 87.0863 3.144 87.0863 3.976C87.0863 4.808 86.9263 5.224 86.6063 5.224H81.8063C81.8063 5.352 82.6063 6.376 84.2063 8.296C89.5183 14.632 92.9743 19.432 94.5743 22.696H94.8623C95.8223 21.096 97.7743 18.44 100.718 14.728C103.662 11.016 105.326 8.776 105.71 8.008C106.158 7.176 106.382 6.536 106.382 6.088C106.382 5.576 106.126 5.32 105.614 5.32H102.926C102.606 5.32 102.446 4.904 102.446 4.072C102.446 3.176 102.67 2.728 103.118 2.728L112.046 2.824L119.63 2.728C120.078 2.728 120.302 3.144 120.302 3.976C120.302 4.808 120.046 5.224 119.534 5.224H117.806C116.654 5.224 115.662 5.576 114.83 6.28C111.694 8.904 108.11 12.488 104.078 17.032C100.11 21.512 97.8703 24.648 97.3583 26.44V38.728C97.3583 43.592 97.9983 46.024 99.2783 46.024H104.078C104.59 46.024 104.846 46.536 104.846 47.56C104.846 48.52 104.654 49 104.27 49L93.1343 48.904ZM184.416 2.824L191.424 2.632C191.872 2.632 192.096 3.048 192.096 3.88C192.096 4.712 191.872 5.128 191.424 5.128H188.928C188.224 5.128 187.712 5.416 187.392 5.992C185.6 8.936 182.56 16.104 178.272 27.496C174.048 38.888 171.36 46.504 170.208 50.344C169.952 50.92 169.312 51.208 168.288 51.208C167.328 51.208 166.72 50.888 166.464 50.248C165.632 47.048 163.296 40.776 159.456 31.432C155.616 22.088 152.352 14.568 149.664 8.872C148.896 7.336 148.192 6.344 147.552 5.896C146.912 5.448 145.92 5.224 144.576 5.224C144.192 5.224 144 4.808 144 3.976C144 3.08 144.192 2.632 144.576 2.632L153.696 2.824C153.696 2.824 157.152 2.76 164.064 2.632C164.448 2.632 164.64 3.048 164.64 3.88C164.64 4.712 164.448 5.128 164.064 5.128H159.456C158.752 5.128 158.4 5.416 158.4 5.992C158.4 6.376 160.16 11.4 163.68 21.064C167.264 30.728 169.536 37.032 170.496 39.976C171.648 36.008 173.152 31.4 175.008 26.152C178.912 15.144 180.864 8.904 180.864 7.432C180.864 5.96 180.48 5.224 179.712 5.224H175.776C175.264 5.224 175.008 4.808 175.008 3.976C175.008 3.08 175.2 2.632 175.584 2.632L184.416 2.824ZM196.798 2.632L204.382 2.824C205.086 2.824 205.694 2.824 206.206 2.824L216.19 2.632C216.638 2.632 216.862 3.112 216.862 4.072C216.862 4.968 216.606 5.416 216.094 5.416H211.678C210.846 5.416 210.43 5.928 210.43 6.952V38.728C210.43 43.592 211.07 46.024 212.35 46.024H217.15C217.662 46.024 217.918 46.536 217.918 47.56C217.918 48.52 217.726 49 217.342 49L206.206 48.904L196.606 49.192C196.158 49.192 195.934 48.712 195.934 47.752C195.934 46.792 196.126 46.312 196.51 46.312H200.83C201.534 46.312 201.95 46.184 202.078 45.928C202.206 45.608 202.27 44.808 202.27 43.528V13.288C202.27 8.168 201.63 5.608 200.35 5.608H196.894C196.126 5.608 195.742 5.128 195.742 4.168C195.742 3.144 196.094 2.632 196.798 2.632ZM236.315 49L226.043 49.192C225.595 49.192 225.371 48.712 225.371 47.752C225.371 46.792 225.531 46.312 225.851 46.312H230.555C231.323 46.312 231.707 45.768 231.707 44.68V13.192C231.707 8.136 231.003 5.608 229.595 5.608H226.235C225.531 5.608 225.179 5.128 225.179 4.168C225.179 3.144 225.467 2.632 226.043 2.632C231.739 2.76 237.531 2.824 243.419 2.824C249.307 2.824 253.851 3.976 257.051 6.28C260.315 8.584 261.947 11.368 261.947 14.632C261.947 17 260.859 19.144 258.683 21.064C256.571 22.984 254.043 24.232 251.099 24.808V25C255.323 25.768 258.779 27.272 261.467 29.512C264.219 31.688 265.595 34.312 265.595 37.384C265.595 40.392 263.675 43.08 259.835 45.448C255.995 47.816 251.003 49 244.859 49H236.315ZM255.323 36.904C255.323 30.632 250.171 27.208 239.867 26.632V39.688C239.867 43.848 240.507 45.928 241.787 45.928H244.379C247.899 45.928 250.587 45.096 252.443 43.432C254.363 41.768 255.323 39.592 255.323 36.904ZM241.787 5.704C240.507 5.704 239.867 6.76 239.867 8.872V23.176C240.571 23.304 241.627 23.368 243.035 23.368C246.171 23.368 248.603 22.568 250.331 20.968C252.059 19.368 252.923 17.384 252.923 15.016C252.923 12.584 252.027 10.44 250.235 8.584C248.443 6.664 245.627 5.704 241.787 5.704ZM276.017 2.632L285.809 2.824H305.681V1.288C305.681 0.903998 306.097 0.711998 306.929 0.711998C307.825 0.711998 308.273 0.903998 308.273 1.288C308.273 6.344 308.497 9.96 308.945 12.136C309.073 12.52 308.721 12.712 307.889 12.712C306.801 12.712 306.257 12.52 306.257 12.136C305.361 9.192 304.497 7.528 303.665 7.144C300.977 6.184 297.073 5.704 291.953 5.704C291.057 5.768 290.449 6.024 290.129 6.472C289.809 6.92 289.649 7.72 289.649 8.872V24.616C297.393 24.36 301.649 24.008 302.417 23.56L303.089 19.528C303.217 19.208 303.665 19.048 304.433 19.048C305.265 19.048 305.681 19.272 305.681 19.72C305.425 21.576 305.297 23.656 305.297 25.96C305.297 28.2 305.425 30.248 305.681 32.104C305.681 32.488 305.233 32.68 304.337 32.68C303.505 32.68 303.089 32.552 303.089 32.296L302.321 28.168C301.553 27.72 297.329 27.368 289.649 27.112V38.728C289.649 43.528 290.289 45.928 291.569 45.928H294.641C301.681 45.8 306.545 44.808 309.233 42.952L309.713 39.208C309.841 38.824 310.161 38.632 310.673 38.632C311.249 38.632 311.633 38.632 311.825 38.632C312.209 38.76 312.401 38.952 312.401 39.208C312.017 41.896 311.825 45.672 311.825 50.536C311.825 50.856 311.377 51.016 310.481 51.016C309.649 51.016 309.233 50.856 309.233 50.536V49H292.145L275.825 49.192C275.377 49.192 275.153 48.712 275.153 47.752C275.153 46.792 275.345 46.312 275.729 46.312H280.049C280.753 46.312 281.169 46.184 281.297 45.928C281.425 45.608 281.489 44.808 281.489 43.528V13.288C281.489 8.168 280.849 5.608 279.569 5.608H276.113C275.345 5.608 274.961 5.128 274.961 4.168C274.961 3.144 275.313 2.632 276.017 2.632ZM334.077 44.584C334.077 46.12 333.533 47.464 332.445 48.616C331.421 49.704 330.141 50.248 328.605 50.248C327.133 50.248 325.853 49.736 324.765 48.712C323.677 47.624 323.133 46.344 323.133 44.872C323.133 43.4 323.613 42.12 324.573 41.032C325.597 39.88 326.845 39.304 328.317 39.304C329.853 39.304 331.197 39.816 332.349 40.84C333.501 41.8 334.077 43.048 334.077 44.584Z" fill="black"/>
</svg>
